<svg aria-hidden="true" style="position: absolute; width: 0; height: 0; overflow: hidden;" version="1.1" xmlns="http://www.w3.org/2000/svg" xmlns:xlink="http://www.w3.org/1999/xlink">
<defs>
<symbol id="icon-user" viewBox="0 0 32 32">
<path fill="#607d8b" style="fill: var(--color1, #607d8b)" d="M18 24.354c0-1.8 1.103-3.345 2.667-4v-0.334c0-0.811 0.196-1.571 0.521-2.26-1.008-0.676-2.219-1.073-3.521-1.073h-11.334c-3.492 0-6.333 2.841-6.333 6.333v4.667c0 0.552 0.448 1 1 1h17z"></path>
<path fill="#607d8b" style="fill: var(--color1, #607d8b)" d="M18.667 7.354c0 3.682-2.985 6.666-6.667 6.666s-6.667-2.985-6.667-6.667c0-3.682 2.985-6.667 6.667-6.667s6.667 2.985 6.667 6.667z"></path>
<path fill="#ffc107" style="fill: var(--color2, #ffc107)" d="M29.667 22.021h-7.334c-1.287 0-2.333 1.047-2.333 2.334v4.666c0 1.287 1.047 2.334 2.333 2.334h7.334c1.287 0 2.333-1.047 2.333-2.334v-4.666c0-1.287-1.047-2.334-2.333-2.334z"></path>
<path fill="#607d8b" style="fill: var(--color1, #607d8b)" d="M26 16.688c-1.839 0-3.333 1.496-3.333 3.333v2h2v-2c0-0.735 0.597-1.333 1.333-1.333s1.333 0.599 1.333 1.333v2h2v-2c0-1.837-1.495-3.333-3.333-3.333z"></path>
</symbol>
<symbol id="icon-noun_Login_3574241" viewBox="0 0 26 32">
<path d="M12.8 10.886c2.146 0 3.877-2.53 3.877-4.62-0.085-2.077-1.789-3.729-3.88-3.729s-3.795 1.652-3.879 3.721l-0 0.008c0.006 2.091 1.737 4.62 3.883 4.62zM12.8 3.657c0.009-0 0.020-0 0.031-0 1.44 0 2.61 1.159 2.627 2.595v0.002c0 1.499-1.25 3.401-2.658 3.401s-2.664-1.902-2.664-3.401c0.021-1.438 1.191-2.597 2.633-2.597 0.011 0 0.022 0 0.032 0h-0.002zM20.114 17.676c0 1.054-0.549 2.115-1.634 3.157-1.463 1.435-3.468 2.323-5.68 2.328h-0.001c-1.456-0.002-2.82-0.393-3.994-1.075l0.038 0.020c-0.185-0.108-0.307-0.305-0.307-0.53 0-0.338 0.274-0.612 0.612-0.612 0.112 0 0.217 0.030 0.308 0.083l-0.003-0.002c0.97 0.559 2.133 0.889 3.373 0.889 1.877 0 3.578-0.756 4.814-1.981l-0 0c0.688-0.549 1.154-1.352 1.254-2.265l0.001-0.015c0-0.701-0.421-1.469-1.262-2.28-1.234-1.225-2.933-1.981-4.809-1.981-1.24 0-2.402 0.33-3.404 0.908l0.033-0.018c-0.087 0.051-0.193 0.081-0.305 0.081-0.338 0-0.612-0.274-0.612-0.612 0-0.226 0.122-0.423 0.304-0.529l0.003-0.002c1.142-0.66 2.513-1.050 3.974-1.050 2.206 0 4.204 0.887 5.657 2.325l-0.001-0.001c1.079 1.048 1.64 2.109 1.64 3.157zM8.978 18.115l-1.829 1.829c-0.11 0.111-0.264 0.18-0.433 0.18s-0.322-0.069-0.433-0.18l-0-0c-0.111-0.11-0.18-0.264-0.18-0.433s0.069-0.322 0.18-0.433l0-0 0.78-0.792h-3.407c-0.337 0-0.61-0.273-0.61-0.61s0.273-0.61 0.61-0.61v0h3.407l-0.792-0.786c-0.111-0.111-0.179-0.264-0.179-0.433 0-0.338 0.274-0.612 0.612-0.612 0.169 0 0.322 0.069 0.433 0.179l1.829 1.829c0.054 0.056 0.097 0.123 0.127 0.197l0.001 0.004c0.029 0.068 0.046 0.148 0.046 0.232s-0.017 0.163-0.047 0.236l0.002-0.004c-0.031 0.078-0.074 0.145-0.128 0.201l0-0z"></path>
</symbol>
<symbol id="icon-home" viewBox="0 0 32 32">
<path d="M32 18.451l-16-12.42-16 12.42v-5.064l16-12.42 16 12.42zM28 18v12h-8v-8h-8v8h-8v-12l12-9z"></path>
</symbol>
<symbol id="icon-home2" viewBox="0 0 32 32">
<path d="M16 1l-16 16 3 3 3-3v13h8v-6h4v6h8v-13l3 3 3-3-16-16zM16 14c-1.105 0-2-0.895-2-2s0.895-2 2-2c1.105 0 2 0.895 2 2s-0.895 2-2 2z"></path>
</symbol>
<symbol id="icon-home3" viewBox="0 0 32 32">
<path d="M32 19l-6-6v-9h-4v5l-6-6-16 16v1h4v10h10v-6h4v6h10v-10h4z"></path>
</symbol>
</defs>
</svg>
